<svg xmlns="http://www.w3.org/2000/svg">
<symbol id="facebook_bottom" viewBox="0 0 32 32"><path d="M16.001 0C7.163 0 0 7.163 0 16.001c0 8.836 7.163 16 16.001 16C24.837 32 32 24.836 32 16c0-8.838-7.163-16-15.999-16zm6.103 8.148l-2.212.001c-1.736 0-2.072.825-2.072 2.035v2.668h4.138l-.001 4.18H17.82v10.723h-4.316V17.03H9.896v-4.178h3.608V9.77c0-3.576 2.185-5.524 5.376-5.524l3.226.005v3.897h-.002z" fill="#00BFF3"/></symbol>
<symbol id="facebook_top" viewBox="0 0 32 32"><path d="M16.001 0C7.163 0 0 7.163 0 16.001 0 24.837 7.163 32 16.001 32 24.837 32 32 24.837 32 16.001 32 7.163 24.837 0 16.001 0zm6.103 8.147l-2.212.002c-1.736 0-2.072.825-2.072 2.035v2.668h4.138l-.001 4.18H17.82v10.722h-4.316V17.03H9.896v-4.178h3.608V9.77c0-3.576 2.185-5.524 5.376-5.524l3.226.004v3.897h-.002z" fill="#fff"/></symbol>
<symbol id="googleplus_bottom" viewBox="0 0 32 32"><path d="M16.607 11.023c0-2.218-1.322-5.668-3.872-5.668-.8 0-1.66.401-2.153 1.016-.523.65-.675 1.478-.675 2.282 0 2.062 1.198 5.48 3.843 5.48.768 0 1.594-.368 2.09-.86.706-.712.767-1.695.767-2.25zM14.947 19.123c-.246-.03-.399-.03-.706-.03-.277 0-1.938.06-3.227.494-.676.246-2.643.984-2.643 3.171 0 2.189 2.122 3.76 5.41 3.76 2.95 0 4.519-1.42 4.519-3.326 0-1.576-1.016-2.405-3.353-4.069z" fill="#00BFF3"/><path d="M16.001 0C7.163 0 0 7.163 0 16.001c0 8.836 7.163 16 16.001 16C24.837 32 32 24.836 32 16c0-8.838-7.163-16-15.999-16zM12.273 27.81c-4.458 0-6.608-2.124-6.608-4.406 0-1.107.553-2.677 2.366-3.756 1.905-1.17 4.488-1.324 5.871-1.42-.432-.553-.92-1.138-.92-2.092 0-.523.153-.832.305-1.2-.34.03-.675.06-.984.06-3.256 0-5.1-2.434-5.1-4.837 0-1.415.644-2.986 1.966-4.126 1.753-1.448 4.148-1.841 5.809-1.841h6.055l-1.998 1.257H17.13c.707.584 2.18 1.815 2.18 4.157 0 2.278-1.29 3.359-2.58 4.375-.401.4-.862.83-.862 1.51 0 .675.46 1.044.798 1.324l1.108.86c1.352 1.14 2.582 2.187 2.582 4.315 0 2.895-2.8 5.82-8.084 5.82zm13.263-12.185v3.1h-1.52v-3.1H20.94v-1.538h3.075v-3.079h1.52v3.079h3.092v1.538h-3.091z" fill="#00BFF3"/></symbol>
<symbol id="googleplus_top" viewBox="0 0 32 32"><path d="M16.607 11.023c0-2.218-1.322-5.668-3.872-5.668-.8 0-1.66.4-2.153 1.016-.523.65-.675 1.478-.675 2.282 0 2.062 1.198 5.479 3.843 5.479.768 0 1.594-.367 2.09-.86.706-.711.767-1.694.767-2.249zM14.947 19.123c-.246-.03-.399-.03-.706-.03-.277 0-1.938.06-3.227.494-.676.246-2.643.984-2.643 3.171 0 2.189 2.122 3.76 5.41 3.76 2.95 0 4.519-1.42 4.519-3.327 0-1.575-1.016-2.404-3.353-4.068z" fill="#fff"/><path d="M16.001 0C7.163 0 0 7.163 0 16.001 0 24.837 7.163 32 16.001 32 24.837 32 32 24.837 32 16.001 32 7.163 24.837 0 16.001 0zm-3.728 27.809c-4.458 0-6.608-2.124-6.608-4.406 0-1.107.553-2.677 2.366-3.756 1.905-1.17 4.488-1.324 5.871-1.42-.432-.553-.92-1.138-.92-2.092 0-.523.153-.832.305-1.2-.34.03-.675.06-.984.06-3.256 0-5.1-2.435-5.1-4.837 0-1.415.644-2.986 1.966-4.126 1.753-1.448 4.148-1.841 5.809-1.841h6.055l-1.998 1.256H17.13c.707.585 2.18 1.816 2.18 4.158 0 2.278-1.29 3.358-2.58 4.375-.401.4-.862.83-.862 1.51 0 .675.46 1.044.798 1.324l1.108.86c1.352 1.14 2.582 2.187 2.582 4.315 0 2.895-2.8 5.82-8.084 5.82zm13.263-12.185v3.1h-1.52v-3.1H20.94v-1.538h3.075v-3.079h1.52v3.079h3.092v1.538h-3.091z" fill="#fff"/></symbol>
<symbol id="instagram_bottom" viewBox="0 0 33 32"><path fill-rule="evenodd" clip-rule="evenodd" d="M21.334 15.95c0 2.534-2.179 4.587-4.866 4.587-2.688 0-4.868-2.054-4.868-4.587 0-2.535 2.18-4.59 4.868-4.59 2.687 0 4.866 2.055 4.866 4.59z" fill="#00BFF3"/><path fill-rule="evenodd" clip-rule="evenodd" d="M24 16.206c0 3.922-3.373 7.102-7.533 7.102s-7.534-3.18-7.534-7.102c0-.704.11-1.383.312-2.024H7.02v9.962c0 .514.434.936.963.936h16.877c.529 0 .962-.422.962-.936v-9.962H23.69c.201.641.31 1.32.31 2.024zM21.981 11.495h2.739c.601 0 1.09-.478 1.09-1.062V7.892c0-.585-.489-1.062-1.09-1.062H21.98c-.601 0-1.09.477-1.09 1.062v2.541c0 .584.489 1.062 1.09 1.062z" fill="#00BFF3"/><path fill-rule="evenodd" clip-rule="evenodd" d="M16.445 0C7.362 0 0 7.163 0 16.001c0 8.836 7.362 16 16.445 16 9.081 0 16.443-7.164 16.443-16 0-8.838-7.362-16-16.443-16zm9.006 27.79H7.437c-1.712 0-3.11-1.231-3.11-3.026V7.236c0-1.793 1.398-3.026 3.11-3.026h18.014c1.711 0 3.11 1.233 3.11 3.026v17.528c0 1.795-1.399 3.026-3.11 3.026z" fill="#00BFF3"/></symbol>
<symbol id="instagram_top" viewBox="0 0 33 32"><path fill-rule="evenodd" clip-rule="evenodd" d="M21.334 15.95c0 2.533-2.179 4.587-4.866 4.587-2.688 0-4.868-2.054-4.868-4.587 0-2.536 2.18-4.59 4.868-4.59 2.687 0 4.866 2.054 4.866 4.59z" fill="#fff"/><path fill-rule="evenodd" clip-rule="evenodd" d="M24 16.206c0 3.922-3.373 7.102-7.533 7.102s-7.534-3.18-7.534-7.102c0-.704.11-1.383.312-2.024H7.02v9.961c0 .515.434.937.963.937h16.877c.529 0 .962-.422.962-.936v-9.962H23.69c.201.64.31 1.32.31 2.024zM21.981 11.495h2.739c.601 0 1.09-.478 1.09-1.062V7.892c0-.586-.489-1.062-1.09-1.062H21.98c-.601 0-1.09.476-1.09 1.062v2.541c0 .584.489 1.062 1.09 1.062z" fill="#fff"/><path fill-rule="evenodd" clip-rule="evenodd" d="M16.445 0C7.362 0 0 7.163 0 16.001 0 24.837 7.362 32 16.445 32c9.081 0 16.443-7.163 16.443-15.999C32.888 7.163 25.526 0 16.445 0zm9.006 27.79H7.437c-1.712 0-3.11-1.231-3.11-3.026V7.236c0-1.793 1.398-3.026 3.11-3.026h18.014c1.711 0 3.11 1.233 3.11 3.026v17.527c0 1.796-1.399 3.027-3.11 3.027z" fill="#fff"/></symbol>
<symbol id="star" viewBox="0 0 27 26"><path fill-rule="evenodd" clip-rule="evenodd" d="M16.67 9.954L13.5 0l-3.17 9.954L0 9.931l8.37 6.13L5.157 26l8.343-6.166L21.843 26l-3.213-9.94L27 9.931l-10.33.023zm4.667 1.847l-5.969.013L13.5 5.949l-1.868 5.865-5.969-.013 4.837 3.541-1.88 5.814 4.88-3.606 4.88 3.606-1.88-5.814 4.837-3.541z" fill="#DDD"/></symbol>
<symbol id="star_filled" viewBox="0 0 28 26"><path d="M14 0l3.288 9.954L28 9.931l-8.68 6.13L22.652 26 14 19.834 5.348 26l3.332-9.94L0 9.931l10.712.023L14 0z" fill="#F90"/></symbol>
</svg>